<svg width="1000" height="1000" xmlns="http://www.w3.org/2000/svg" version="1.1">


<!-- internal style sheet -->
<style type="text/css"><![CDATA[
 rect.background{fill:white}
 rect{fill:none; stroke:rgb(25,25,25); stroke-width:2}
 text{font-family:Helvetica; text-anchor:middle; fill:rgb(25,25,25)}
 line{stroke:rgb(25,25,25); stroke-width:4}
 path{fill:none; stroke:rgb(25,25,25); stroke-width:2}
 circle{fill:white; stroke:black; stroke-width:2}

 path.p0{fill:rgb(0,102,255); stroke:rgb(25,25,25); stroke-width:2}
 path.ps0{fill:rgb(0,77,191); stroke:rgb(20,20,20); stroke-width:2}
 rect.r0{fill:rgb(0,102,255); stroke:rgb(25,25,25); stroke-width:2}
 path.p1{fill:rgb(0,255,178); stroke:rgb(25,25,25); stroke-width:2}
 path.ps1{fill:rgb(0,191,134); stroke:rgb(20,20,20); stroke-width:2}
 rect.r1{fill:rgb(0,255,178); stroke:rgb(25,25,25); stroke-width:2}
 path.p2{fill:rgb(51,255,0); stroke:rgb(25,25,25); stroke-width:2}
 path.ps2{fill:rgb(38,191,0); stroke:rgb(20,20,20); stroke-width:2}
 rect.r2{fill:rgb(51,255,0); stroke:rgb(25,25,25); stroke-width:2}
 path.p3{fill:rgb(255,230,0); stroke:rgb(25,25,25); stroke-width:2}
 path.ps3{fill:rgb(191,173,0); stroke:rgb(20,20,20); stroke-width:2}
 rect.r3{fill:rgb(255,230,0); stroke:rgb(25,25,25); stroke-width:2}
 path.p4{fill:rgb(255,0,0); stroke:rgb(25,25,25); stroke-width:2}
 path.ps4{fill:rgb(191,0,0); stroke:rgb(20,20,20); stroke-width:2}
 rect.r4{fill:rgb(255,0,0); stroke:rgb(25,25,25); stroke-width:2}
]]></style>

 <rect class="background" width="1000" height="1000"/>
  <!-- cells -->
  <path class="p2" d="M 290 920 L 395 920 L 395 815 L 290 815 L 290 920"/>
  <line x1="290" y1="920" x2="395" y2="920"/>
  <path class="p2" d="M 395 920 L 500 920 L 500 815 L 395 815 L 395 920"/>
  <line x1="395" y1="920" x2="500" y2="920"/>
  <path class="p2" d="M 80 710 L 185 710 L 185 605 L 80 605 L 80 710"/>
  <line x1="80" y1="710" x2="80" y2="605"/>
  <path class="p2" d="M 80 605 L 185 605 L 185 500 L 80 500 L 80 605"/>
  <line x1="80" y1="605" x2="80" y2="500"/>
  <path class="p2" d="M 500 920 L 605 920 L 605 815 L 500 815 L 500 920"/>
  <line x1="500" y1="920" x2="605" y2="920"/>
  <path class="p2" d="M 605 920 L 710 920 L 710 815 L 605 815 L 605 920"/>
  <line x1="605" y1="920" x2="710" y2="920"/>
  <path class="p2" d="M 815 710 L 920 710 L 920 605 L 815 605 L 815 710"/>
  <line x1="920" y1="710" x2="920" y2="605"/>
  <path class="p2" d="M 815 605 L 920 605 L 920 500 L 815 500 L 815 605"/>
  <line x1="920" y1="605" x2="920" y2="500"/>
  <line x1="815" y1="500" x2="920" y2="500"/>
  <path class="p2" d="M 80 500 L 185 500 L 185 395 L 80 395 L 80 500"/>
  <line x1="80" y1="500" x2="80" y2="395"/>
  <path class="p2" d="M 80 395 L 185 395 L 185 290 L 80 290 L 80 395"/>
  <line x1="80" y1="395" x2="80" y2="290"/>
  <path class="p2" d="M 290 185 L 395 185 L 395 80 L 290 80 L 290 185"/>
  <line x1="290" y1="80" x2="395" y2="80"/>
  <path class="p2" d="M 395 185 L 500 185 L 500 80 L 395 80 L 395 185"/>
  <line x1="500" y1="185" x2="500" y2="80"/>
  <line x1="395" y1="80" x2="500" y2="80"/>
  <path class="p2" d="M 80 920 L 185 920 L 185 815 L 80 815 L 80 920"/>
  <line x1="80" y1="920" x2="80" y2="815"/>
  <line x1="80" y1="920" x2="185" y2="920"/>
  <path class="p2" d="M 185 920 L 290 920 L 290 815 L 185 815 L 185 920"/>
  <line x1="185" y1="920" x2="290" y2="920"/>
  <path class="p2" d="M 80 815 L 185 815 L 185 710 L 80 710 L 80 815"/>
  <line x1="80" y1="815" x2="80" y2="710"/>
  <path class="p2" d="M 185 815 L 290 815 L 290 710 L 185 710 L 185 815"/>
  <path class="p2" d="M 710 920 L 815 920 L 815 815 L 710 815 L 710 920"/>
  <line x1="710" y1="920" x2="815" y2="920"/>
  <path class="p2" d="M 815 920 L 920 920 L 920 815 L 815 815 L 815 920"/>
  <line x1="920" y1="920" x2="920" y2="815"/>
  <line x1="815" y1="920" x2="920" y2="920"/>
  <path class="p2" d="M 710 815 L 815 815 L 815 710 L 710 710 L 710 815"/>
  <path class="p2" d="M 815 815 L 920 815 L 920 710 L 815 710 L 815 815"/>
  <line x1="920" y1="815" x2="920" y2="710"/>
  <path class="p2" d="M 80 290 L 185 290 L 185 185 L 80 185 L 80 290"/>
  <line x1="80" y1="290" x2="80" y2="185"/>
  <path class="p2" d="M 185 290 L 290 290 L 290 185 L 185 185 L 185 290"/>
  <path class="p2" d="M 80 185 L 185 185 L 185 80 L 80 80 L 80 185"/>
  <line x1="80" y1="185" x2="80" y2="80"/>
  <line x1="80" y1="80" x2="185" y2="80"/>
  <path class="p2" d="M 185 185 L 290 185 L 290 80 L 185 80 L 185 185"/>
  <line x1="185" y1="80" x2="290" y2="80"/>
  <path class="p3" d="M 290 815 L 343 815 L 343 763 L 290 763 L 290 815"/>
  <path class="p3" d="M 343 815 L 395 815 L 395 763 L 343 763 L 343 815"/>
  <path class="p3" d="M 290 763 L 343 763 L 343 710 L 290 710 L 290 763"/>
  <path class="p3" d="M 343 763 L 395 763 L 395 710 L 343 710 L 343 763"/>
  <path class="p3" d="M 395 815 L 448 815 L 448 763 L 395 763 L 395 815"/>
  <path class="p3" d="M 448 815 L 500 815 L 500 763 L 448 763 L 448 815"/>
  <path class="p3" d="M 395 763 L 448 763 L 448 710 L 395 710 L 395 763"/>
  <path class="p3" d="M 448 763 L 500 763 L 500 710 L 448 710 L 448 763"/>
  <path class="p3" d="M 185 710 L 238 710 L 238 658 L 185 658 L 185 710"/>
  <path class="p3" d="M 238 710 L 290 710 L 290 658 L 238 658 L 238 710"/>
  <path class="p3" d="M 185 658 L 238 658 L 238 605 L 185 605 L 185 658"/>
  <path class="p3" d="M 238 658 L 290 658 L 290 605 L 238 605 L 238 658"/>
  <path class="p3" d="M 185 605 L 238 605 L 238 553 L 185 553 L 185 605"/>
  <path class="p3" d="M 238 605 L 290 605 L 290 553 L 238 553 L 238 605"/>
  <path class="p3" d="M 185 553 L 238 553 L 238 500 L 185 500 L 185 553"/>
  <path class="p3" d="M 238 553 L 290 553 L 290 500 L 238 500 L 238 553"/>
  <path class="p3" d="M 500 815 L 553 815 L 553 763 L 500 763 L 500 815"/>
  <path class="p3" d="M 553 815 L 605 815 L 605 763 L 553 763 L 553 815"/>
  <path class="p3" d="M 500 763 L 553 763 L 553 710 L 500 710 L 500 763"/>
  <path class="p3" d="M 553 763 L 605 763 L 605 710 L 553 710 L 553 763"/>
  <path class="p3" d="M 605 815 L 658 815 L 658 763 L 605 763 L 605 815"/>
  <path class="p3" d="M 658 815 L 710 815 L 710 763 L 658 763 L 658 815"/>
  <path class="p3" d="M 605 763 L 658 763 L 658 710 L 605 710 L 605 763"/>
  <path class="p3" d="M 658 763 L 710 763 L 710 710 L 658 710 L 658 763"/>
  <path class="p3" d="M 710 710 L 763 710 L 763 658 L 710 658 L 710 710"/>
  <path class="p3" d="M 763 710 L 815 710 L 815 658 L 763 658 L 763 710"/>
  <path class="p3" d="M 710 658 L 763 658 L 763 605 L 710 605 L 710 658"/>
  <path class="p3" d="M 763 658 L 815 658 L 815 605 L 763 605 L 763 658"/>
  <path class="p3" d="M 710 605 L 763 605 L 763 553 L 710 553 L 710 605"/>
  <path class="p3" d="M 763 605 L 815 605 L 815 553 L 763 553 L 763 605"/>
  <path class="p3" d="M 710 553 L 763 553 L 763 500 L 710 500 L 710 553"/>
  <line x1="710" y1="500" x2="763" y2="500"/>
  <path class="p3" d="M 763 553 L 815 553 L 815 500 L 763 500 L 763 553"/>
  <line x1="763" y1="500" x2="815" y2="500"/>
  <path class="p3" d="M 185 500 L 238 500 L 238 448 L 185 448 L 185 500"/>
  <path class="p3" d="M 238 500 L 290 500 L 290 448 L 238 448 L 238 500"/>
  <path class="p3" d="M 185 448 L 238 448 L 238 395 L 185 395 L 185 448"/>
  <path class="p3" d="M 238 448 L 290 448 L 290 395 L 238 395 L 238 448"/>
  <path class="p3" d="M 185 395 L 238 395 L 238 343 L 185 343 L 185 395"/>
  <path class="p3" d="M 238 395 L 290 395 L 290 343 L 238 343 L 238 395"/>
  <path class="p3" d="M 185 343 L 238 343 L 238 290 L 185 290 L 185 343"/>
  <path class="p3" d="M 238 343 L 290 343 L 290 290 L 238 290 L 238 343"/>
  <path class="p3" d="M 290 290 L 343 290 L 343 238 L 290 238 L 290 290"/>
  <path class="p3" d="M 343 290 L 395 290 L 395 238 L 343 238 L 343 290"/>
  <path class="p3" d="M 290 238 L 343 238 L 343 185 L 290 185 L 290 238"/>
  <path class="p3" d="M 343 238 L 395 238 L 395 185 L 343 185 L 343 238"/>
  <path class="p3" d="M 395 290 L 448 290 L 448 238 L 395 238 L 395 290"/>
  <path class="p3" d="M 448 290 L 500 290 L 500 238 L 448 238 L 448 290"/>
  <line x1="500" y1="290" x2="500" y2="238"/>
  <path class="p3" d="M 395 238 L 448 238 L 448 185 L 395 185 L 395 238"/>
  <path class="p3" d="M 448 238 L 500 238 L 500 185 L 448 185 L 448 238"/>
  <line x1="500" y1="238" x2="500" y2="185"/>
  <path class="p4" d="M 290 710 L 316 710 L 316 684 L 290 684 L 290 710"/>
  <path class="p4" d="M 316 710 L 343 710 L 343 684 L 316 684 L 316 710"/>
  <path class="p4" d="M 290 684 L 316 684 L 316 658 L 290 658 L 290 684"/>
  <path class="p4" d="M 316 684 L 343 684 L 343 658 L 316 658 L 316 684"/>
  <path class="p4" d="M 343 710 L 369 710 L 369 684 L 343 684 L 343 710"/>
  <path class="p4" d="M 369 710 L 395 710 L 395 684 L 369 684 L 369 710"/>
  <path class="p4" d="M 343 684 L 369 684 L 369 658 L 343 658 L 343 684"/>
  <path class="p4" d="M 369 684 L 395 684 L 395 658 L 369 658 L 369 684"/>
  <path class="p4" d="M 290 658 L 316 658 L 316 631 L 290 631 L 290 658"/>
  <path class="p4" d="M 316 658 L 343 658 L 343 631 L 316 631 L 316 658"/>
  <path class="p4" d="M 290 631 L 316 631 L 316 605 L 290 605 L 290 631"/>
  <path class="p4" d="M 316 631 L 343 631 L 343 605 L 316 605 L 316 631"/>
  <path class="p4" d="M 343 658 L 369 658 L 369 631 L 343 631 L 343 658"/>
  <path class="p4" d="M 369 658 L 395 658 L 395 631 L 369 631 L 369 658"/>
  <path class="p4" d="M 343 631 L 369 631 L 369 605 L 343 605 L 343 631"/>
  <path class="p4" d="M 369 631 L 395 631 L 395 605 L 369 605 L 369 631"/>
  <path class="p4" d="M 395 710 L 421 710 L 421 684 L 395 684 L 395 710"/>
  <path class="p4" d="M 421 710 L 448 710 L 448 684 L 421 684 L 421 710"/>
  <path class="p4" d="M 395 684 L 421 684 L 421 658 L 395 658 L 395 684"/>
  <path class="p4" d="M 421 684 L 448 684 L 448 658 L 421 658 L 421 684"/>
  <path class="p4" d="M 448 710 L 474 710 L 474 684 L 448 684 L 448 710"/>
  <path class="p4" d="M 474 710 L 500 710 L 500 684 L 474 684 L 474 710"/>
  <path class="p4" d="M 448 684 L 474 684 L 474 658 L 448 658 L 448 684"/>
  <path class="p4" d="M 474 684 L 500 684 L 500 658 L 474 658 L 474 684"/>
  <path class="p4" d="M 395 658 L 421 658 L 421 631 L 395 631 L 395 658"/>
  <path class="p4" d="M 421 658 L 448 658 L 448 631 L 421 631 L 421 658"/>
  <path class="p4" d="M 395 631 L 421 631 L 421 605 L 395 605 L 395 631"/>
  <path class="p4" d="M 421 631 L 448 631 L 448 605 L 421 605 L 421 631"/>
  <path class="p4" d="M 448 658 L 474 658 L 474 631 L 448 631 L 448 658"/>
  <path class="p4" d="M 474 658 L 500 658 L 500 631 L 474 631 L 474 658"/>
  <path class="p4" d="M 448 631 L 474 631 L 474 605 L 448 605 L 448 631"/>
  <path class="p4" d="M 474 631 L 500 631 L 500 605 L 474 605 L 474 631"/>
  <path class="p4" d="M 290 605 L 316 605 L 316 579 L 290 579 L 290 605"/>
  <path class="p4" d="M 316 605 L 343 605 L 343 579 L 316 579 L 316 605"/>
  <path class="p4" d="M 290 579 L 316 579 L 316 553 L 290 553 L 290 579"/>
  <path class="p4" d="M 316 579 L 343 579 L 343 553 L 316 553 L 316 579"/>
  <path class="p4" d="M 343 605 L 369 605 L 369 579 L 343 579 L 343 605"/>
  <path class="p4" d="M 369 605 L 395 605 L 395 579 L 369 579 L 369 605"/>
  <path class="p4" d="M 343 579 L 369 579 L 369 553 L 343 553 L 343 579"/>
  <path class="p4" d="M 369 579 L 395 579 L 395 553 L 369 553 L 369 579"/>
  <path class="p4" d="M 290 553 L 316 553 L 316 526 L 290 526 L 290 553"/>
  <path class="p4" d="M 316 553 L 343 553 L 343 526 L 316 526 L 316 553"/>
  <path class="p4" d="M 290 526 L 316 526 L 316 500 L 290 500 L 290 526"/>
  <path class="p4" d="M 316 526 L 343 526 L 343 500 L 316 500 L 316 526"/>
  <path class="p4" d="M 343 553 L 369 553 L 369 526 L 343 526 L 343 553"/>
  <path class="p4" d="M 369 553 L 395 553 L 395 526 L 369 526 L 369 553"/>
  <path class="p4" d="M 343 526 L 369 526 L 369 500 L 343 500 L 343 526"/>
  <path class="p4" d="M 369 526 L 395 526 L 395 500 L 369 500 L 369 526"/>
  <path class="p4" d="M 395 605 L 421 605 L 421 579 L 395 579 L 395 605"/>
  <path class="p4" d="M 421 605 L 448 605 L 448 579 L 421 579 L 421 605"/>
  <path class="p4" d="M 395 579 L 421 579 L 421 553 L 395 553 L 395 579"/>
  <path class="p4" d="M 421 579 L 448 579 L 448 553 L 421 553 L 421 579"/>
  <path class="p4" d="M 448 605 L 474 605 L 474 579 L 448 579 L 448 605"/>
  <path class="p4" d="M 474 605 L 500 605 L 500 579 L 474 579 L 474 605"/>
  <path class="p4" d="M 448 579 L 474 579 L 474 553 L 448 553 L 448 579"/>
  <path class="p4" d="M 474 579 L 500 579 L 500 553 L 474 553 L 474 579"/>
  <path class="p4" d="M 395 553 L 421 553 L 421 526 L 395 526 L 395 553"/>
  <path class="p4" d="M 421 553 L 448 553 L 448 526 L 421 526 L 421 553"/>
  <path class="p4" d="M 395 526 L 421 526 L 421 500 L 395 500 L 395 526"/>
  <path class="p4" d="M 421 526 L 448 526 L 448 500 L 421 500 L 421 526"/>
  <path class="p4" d="M 448 553 L 474 553 L 474 526 L 448 526 L 448 553"/>
  <path class="p4" d="M 474 553 L 500 553 L 500 526 L 474 526 L 474 553"/>
  <path class="p4" d="M 448 526 L 474 526 L 474 500 L 448 500 L 448 526"/>
  <path class="p4" d="M 474 526 L 500 526 L 500 500 L 474 500 L 474 526"/>
  <path class="p4" d="M 500 710 L 526 710 L 526 684 L 500 684 L 500 710"/>
  <path class="p4" d="M 526 710 L 553 710 L 553 684 L 526 684 L 526 710"/>
  <path class="p4" d="M 500 684 L 526 684 L 526 658 L 500 658 L 500 684"/>
  <path class="p4" d="M 526 684 L 553 684 L 553 658 L 526 658 L 526 684"/>
  <path class="p4" d="M 553 710 L 579 710 L 579 684 L 553 684 L 553 710"/>
  <path class="p4" d="M 579 710 L 605 710 L 605 684 L 579 684 L 579 710"/>
  <path class="p4" d="M 553 684 L 579 684 L 579 658 L 553 658 L 553 684"/>
  <path class="p4" d="M 579 684 L 605 684 L 605 658 L 579 658 L 579 684"/>
  <path class="p4" d="M 500 658 L 526 658 L 526 631 L 500 631 L 500 658"/>
  <path class="p4" d="M 526 658 L 553 658 L 553 631 L 526 631 L 526 658"/>
  <path class="p4" d="M 500 631 L 526 631 L 526 605 L 500 605 L 500 631"/>
  <path class="p4" d="M 526 631 L 553 631 L 553 605 L 526 605 L 526 631"/>
  <path class="p4" d="M 553 658 L 579 658 L 579 631 L 553 631 L 553 658"/>
  <path class="p4" d="M 579 658 L 605 658 L 605 631 L 579 631 L 579 658"/>
  <path class="p4" d="M 553 631 L 579 631 L 579 605 L 553 605 L 553 631"/>
  <path class="p4" d="M 579 631 L 605 631 L 605 605 L 579 605 L 579 631"/>
  <path class="p4" d="M 605 710 L 631 710 L 631 684 L 605 684 L 605 710"/>
  <path class="p4" d="M 631 710 L 658 710 L 658 684 L 631 684 L 631 710"/>
  <path class="p4" d="M 605 684 L 631 684 L 631 658 L 605 658 L 605 684"/>
  <path class="p4" d="M 631 684 L 658 684 L 658 658 L 631 658 L 631 684"/>
  <path class="p4" d="M 658 710 L 684 710 L 684 684 L 658 684 L 658 710"/>
  <path class="p4" d="M 684 710 L 710 710 L 710 684 L 684 684 L 684 710"/>
  <path class="p4" d="M 658 684 L 684 684 L 684 658 L 658 658 L 658 684"/>
  <path class="p4" d="M 684 684 L 710 684 L 710 658 L 684 658 L 684 684"/>
  <path class="p4" d="M 605 658 L 631 658 L 631 631 L 605 631 L 605 658"/>
  <path class="p4" d="M 631 658 L 658 658 L 658 631 L 631 631 L 631 658"/>
  <path class="p4" d="M 605 631 L 631 631 L 631 605 L 605 605 L 605 631"/>
  <path class="p4" d="M 631 631 L 658 631 L 658 605 L 631 605 L 631 631"/>
  <path class="p4" d="M 658 658 L 684 658 L 684 631 L 658 631 L 658 658"/>
  <path class="p4" d="M 684 658 L 710 658 L 710 631 L 684 631 L 684 658"/>
  <path class="p4" d="M 658 631 L 684 631 L 684 605 L 658 605 L 658 631"/>
  <path class="p4" d="M 684 631 L 710 631 L 710 605 L 684 605 L 684 631"/>
  <path class="p4" d="M 500 605 L 526 605 L 526 579 L 500 579 L 500 605"/>
  <path class="p4" d="M 526 605 L 553 605 L 553 579 L 526 579 L 526 605"/>
  <path class="p4" d="M 500 579 L 526 579 L 526 553 L 500 553 L 500 579"/>
  <path class="p4" d="M 526 579 L 553 579 L 553 553 L 526 553 L 526 579"/>
  <path class="p4" d="M 553 605 L 579 605 L 579 579 L 553 579 L 553 605"/>
  <path class="p4" d="M 579 605 L 605 605 L 605 579 L 579 579 L 579 605"/>
  <path class="p4" d="M 553 579 L 579 579 L 579 553 L 553 553 L 553 579"/>
  <path class="p4" d="M 579 579 L 605 579 L 605 553 L 579 553 L 579 579"/>
  <path class="p4" d="M 500 553 L 526 553 L 526 526 L 500 526 L 500 553"/>
  <path class="p4" d="M 526 553 L 553 553 L 553 526 L 526 526 L 526 553"/>
  <path class="p4" d="M 500 526 L 526 526 L 526 500 L 500 500 L 500 526"/>
  <line x1="500" y1="500" x2="526" y2="500"/>
  <path class="p4" d="M 526 526 L 553 526 L 553 500 L 526 500 L 526 526"/>
  <line x1="526" y1="500" x2="553" y2="500"/>
  <path class="p4" d="M 553 553 L 579 553 L 579 526 L 553 526 L 553 553"/>
  <path class="p4" d="M 579 553 L 605 553 L 605 526 L 579 526 L 579 553"/>
  <path class="p4" d="M 553 526 L 579 526 L 579 500 L 553 500 L 553 526"/>
  <line x1="553" y1="500" x2="579" y2="500"/>
  <path class="p4" d="M 579 526 L 605 526 L 605 500 L 579 500 L 579 526"/>
  <line x1="579" y1="500" x2="605" y2="500"/>
  <path class="p4" d="M 605 605 L 631 605 L 631 579 L 605 579 L 605 605"/>
  <path class="p4" d="M 631 605 L 658 605 L 658 579 L 631 579 L 631 605"/>
  <path class="p4" d="M 605 579 L 631 579 L 631 553 L 605 553 L 605 579"/>
  <path class="p4" d="M 631 579 L 658 579 L 658 553 L 631 553 L 631 579"/>
  <path class="p4" d="M 658 605 L 684 605 L 684 579 L 658 579 L 658 605"/>
  <path class="p4" d="M 684 605 L 710 605 L 710 579 L 684 579 L 684 605"/>
  <path class="p4" d="M 658 579 L 684 579 L 684 553 L 658 553 L 658 579"/>
  <path class="p4" d="M 684 579 L 710 579 L 710 553 L 684 553 L 684 579"/>
  <path class="p4" d="M 605 553 L 631 553 L 631 526 L 605 526 L 605 553"/>
  <path class="p4" d="M 631 553 L 658 553 L 658 526 L 631 526 L 631 553"/>
  <path class="p4" d="M 605 526 L 631 526 L 631 500 L 605 500 L 605 526"/>
  <line x1="605" y1="500" x2="631" y2="500"/>
  <path class="p4" d="M 631 526 L 658 526 L 658 500 L 631 500 L 631 526"/>
  <line x1="631" y1="500" x2="658" y2="500"/>
  <path class="p4" d="M 658 553 L 684 553 L 684 526 L 658 526 L 658 553"/>
  <path class="p4" d="M 684 553 L 710 553 L 710 526 L 684 526 L 684 553"/>
  <path class="p4" d="M 658 526 L 684 526 L 684 500 L 658 500 L 658 526"/>
  <line x1="658" y1="500" x2="684" y2="500"/>
  <path class="p4" d="M 684 526 L 710 526 L 710 500 L 684 500 L 684 526"/>
  <line x1="684" y1="500" x2="710" y2="500"/>
  <path class="p4" d="M 290 500 L 316 500 L 316 474 L 290 474 L 290 500"/>
  <path class="p4" d="M 316 500 L 343 500 L 343 474 L 316 474 L 316 500"/>
  <path class="p4" d="M 290 474 L 316 474 L 316 448 L 290 448 L 290 474"/>
  <path class="p4" d="M 316 474 L 343 474 L 343 448 L 316 448 L 316 474"/>
  <path class="p4" d="M 343 500 L 369 500 L 369 474 L 343 474 L 343 500"/>
  <path class="p4" d="M 369 500 L 395 500 L 395 474 L 369 474 L 369 500"/>
  <path class="p4" d="M 343 474 L 369 474 L 369 448 L 343 448 L 343 474"/>
  <path class="p4" d="M 369 474 L 395 474 L 395 448 L 369 448 L 369 474"/>
  <path class="p4" d="M 290 448 L 316 448 L 316 421 L 290 421 L 290 448"/>
  <path class="p4" d="M 316 448 L 343 448 L 343 421 L 316 421 L 316 448"/>
  <path class="p4" d="M 290 421 L 316 421 L 316 395 L 290 395 L 290 421"/>
  <path class="p4" d="M 316 421 L 343 421 L 343 395 L 316 395 L 316 421"/>
  <path class="p4" d="M 343 448 L 369 448 L 369 421 L 343 421 L 343 448"/>
  <path class="p4" d="M 369 448 L 395 448 L 395 421 L 369 421 L 369 448"/>
  <path class="p4" d="M 343 421 L 369 421 L 369 395 L 343 395 L 343 421"/>
  <path class="p4" d="M 369 421 L 395 421 L 395 395 L 369 395 L 369 421"/>
  <path class="p4" d="M 395 500 L 421 500 L 421 474 L 395 474 L 395 500"/>
  <path class="p4" d="M 421 500 L 448 500 L 448 474 L 421 474 L 421 500"/>
  <path class="p4" d="M 395 474 L 421 474 L 421 448 L 395 448 L 395 474"/>
  <path class="p4" d="M 421 474 L 448 474 L 448 448 L 421 448 L 421 474"/>
  <path class="p4" d="M 448 500 L 474 500 L 474 474 L 448 474 L 448 500"/>
  <path class="p4" d="M 474 500 L 500 500 L 500 474 L 474 474 L 474 500"/>
  <line x1="500" y1="500" x2="500" y2="474"/>
  <path class="p4" d="M 448 474 L 474 474 L 474 448 L 448 448 L 448 474"/>
  <path class="p4" d="M 474 474 L 500 474 L 500 448 L 474 448 L 474 474"/>
  <line x1="500" y1="474" x2="500" y2="448"/>
  <path class="p4" d="M 395 448 L 421 448 L 421 421 L 395 421 L 395 448"/>
  <path class="p4" d="M 421 448 L 448 448 L 448 421 L 421 421 L 421 448"/>
  <path class="p4" d="M 395 421 L 421 421 L 421 395 L 395 395 L 395 421"/>
  <path class="p4" d="M 421 421 L 448 421 L 448 395 L 421 395 L 421 421"/>
  <path class="p4" d="M 448 448 L 474 448 L 474 421 L 448 421 L 448 448"/>
  <path class="p4" d="M 474 448 L 500 448 L 500 421 L 474 421 L 474 448"/>
  <line x1="500" y1="448" x2="500" y2="421"/>
  <path class="p4" d="M 448 421 L 474 421 L 474 395 L 448 395 L 448 421"/>
  <path class="p4" d="M 474 421 L 500 421 L 500 395 L 474 395 L 474 421"/>
  <line x1="500" y1="421" x2="500" y2="395"/>
  <path class="p4" d="M 290 395 L 316 395 L 316 369 L 290 369 L 290 395"/>
  <path class="p4" d="M 316 395 L 343 395 L 343 369 L 316 369 L 316 395"/>
  <path class="p4" d="M 290 369 L 316 369 L 316 343 L 290 343 L 290 369"/>
  <path class="p4" d="M 316 369 L 343 369 L 343 343 L 316 343 L 316 369"/>
  <path class="p4" d="M 343 395 L 369 395 L 369 369 L 343 369 L 343 395"/>
  <path class="p4" d="M 369 395 L 395 395 L 395 369 L 369 369 L 369 395"/>
  <path class="p4" d="M 343 369 L 369 369 L 369 343 L 343 343 L 343 369"/>
  <path class="p4" d="M 369 369 L 395 369 L 395 343 L 369 343 L 369 369"/>
  <path class="p4" d="M 290 343 L 316 343 L 316 316 L 290 316 L 290 343"/>
  <path class="p4" d="M 316 343 L 343 343 L 343 316 L 316 316 L 316 343"/>
  <path class="p4" d="M 290 316 L 316 316 L 316 290 L 290 290 L 290 316"/>
  <path class="p4" d="M 316 316 L 343 316 L 343 290 L 316 290 L 316 316"/>
  <path class="p4" d="M 343 343 L 369 343 L 369 316 L 343 316 L 343 343"/>
  <path class="p4" d="M 369 343 L 395 343 L 395 316 L 369 316 L 369 343"/>
  <path class="p4" d="M 343 316 L 369 316 L 369 290 L 343 290 L 343 316"/>
  <path class="p4" d="M 369 316 L 395 316 L 395 290 L 369 290 L 369 316"/>
  <path class="p4" d="M 395 395 L 421 395 L 421 369 L 395 369 L 395 395"/>
  <path class="p4" d="M 421 395 L 448 395 L 448 369 L 421 369 L 421 395"/>
  <path class="p4" d="M 395 369 L 421 369 L 421 343 L 395 343 L 395 369"/>
  <path class="p4" d="M 421 369 L 448 369 L 448 343 L 421 343 L 421 369"/>
  <path class="p4" d="M 448 395 L 474 395 L 474 369 L 448 369 L 448 395"/>
  <path class="p4" d="M 474 395 L 500 395 L 500 369 L 474 369 L 474 395"/>
  <line x1="500" y1="395" x2="500" y2="369"/>
  <path class="p4" d="M 448 369 L 474 369 L 474 343 L 448 343 L 448 369"/>
  <path class="p4" d="M 474 369 L 500 369 L 500 343 L 474 343 L 474 369"/>
  <line x1="500" y1="369" x2="500" y2="343"/>
  <path class="p4" d="M 395 343 L 421 343 L 421 316 L 395 316 L 395 343"/>
  <path class="p4" d="M 421 343 L 448 343 L 448 316 L 421 316 L 421 343"/>
  <path class="p4" d="M 395 316 L 421 316 L 421 290 L 395 290 L 395 316"/>
  <path class="p4" d="M 421 316 L 448 316 L 448 290 L 421 290 L 421 316"/>
  <path class="p4" d="M 448 343 L 474 343 L 474 316 L 448 316 L 448 343"/>
  <path class="p4" d="M 474 343 L 500 343 L 500 316 L 474 316 L 474 343"/>
  <line x1="500" y1="343" x2="500" y2="316"/>
  <path class="p4" d="M 448 316 L 474 316 L 474 290 L 448 290 L 448 316"/>
  <path class="p4" d="M 474 316 L 500 316 L 500 290 L 474 290 L 474 316"/>
  <line x1="500" y1="316" x2="500" y2="290"/>

</svg>